<svg version="1.1" id="Layer_1" xmlns="http://www.w3.org/2000/svg" xmlns:xlink="http://www.w3.org/1999/xlink" x="0px" y="0px"
				 viewBox="-186 177 266 128" style="enable-background:new -186 177 266 128;" xml:space="preserve">
			<style type="text/css">
				.st0{fill:#231F20;stroke:#000000;stroke-miterlimit:10;}
				.st1{fill:#72482F;stroke:#754930;stroke-miterlimit:10;}
				.st2{fill:#737D33;stroke:#737A32;stroke-miterlimit:10;}
				.st3{enable-background:new    ;}
				.st4{fill:#FFFFFF;}
				.st5{fill:#747E34;}
			</style>
			<rect id="XMLID_2_" x="-187.6" y="175.5" class="st0" width="270.4" height="131.4"/>
			<rect id="XMLID_1_" x="-187.6" y="295" class="st1" width="270.4" height="13.3"/>
			<rect id="XMLID_3_" x="-187.6" y="291" class="st2" width="271.8" height="4"/>
			<g class="st3">
				<path class="st4" d="M-155.7,253h3.6v0.8c0,1.5,0.2,2.6,0.6,3.3c0.4,0.7,1,1.2,2,1.6c1.7,0.6,5.2,0.9,10.5,0.9
					c5.9,0,9.6-0.4,11.3-1.1c1.7-0.7,2.5-2.3,2.5-4.8c0-2.3-0.9-3.7-2.8-4.2c-1-0.3-2.1-0.4-3.5-0.5c-1.2,0-5.2-0.1-12.1-0.1
					c-2.3,0-4-0.1-5-0.2c-2-0.2-3.6-0.7-4.7-1.5c-1.7-1.1-2.5-3.1-2.5-5.9c0-4.4,1.7-7.1,5.2-8.1c2.5-0.7,6.8-1.1,12.7-1.1
					c6.4,0,10.6,0.6,12.6,1.8c1.2,0.8,2.1,1.8,2.5,3.1c0.3,0.8,0.4,2.2,0.5,4h-3.5c0-2.1-0.5-3.5-1.4-4.2c-1.3-1-4.8-1.5-10.6-1.5
					c-5.9,0-9.7,0.4-11.5,1.1c-1.8,0.7-2.6,2.3-2.6,4.7c0,2,0.6,3.3,1.8,3.8c1.4,0.7,3.9,1,7.5,1c11.5,0,14.7-0.1,9.6-0.2
					c3.7,0.1,6.4,0.5,8.1,1.3c2.3,1.1,3.4,3.4,3.4,6.9c0,4-1.5,6.6-4.4,7.7c-2.1,0.8-6.3,1.2-12.6,1.2c-6.6,0-11-0.4-13.1-1.1
					c-2.8-1-4.2-3.1-4.2-6.5V253z"/>
				<path class="st4" d="M-114.3,262.4v-30h24.2c2,0,3.4,0.1,4.2,0.2c1.6,0.3,2.9,0.9,3.8,1.8c1.2,1.3,1.8,3.6,1.8,6.9
					c0,2.2-0.2,3.8-0.5,5c-0.3,1.1-1,2-1.9,2.7c-1.4,1.1-3.6,1.7-6.6,1.7h-21.4v11.8H-114.3z M-110.7,247.6h18.8c3.2,0,5.3-0.4,6.4-1.2
					s1.6-2.4,1.6-4.9c0-2.4-0.5-4-1.4-4.9c-1-0.8-2.9-1.2-5.8-1.2h-19.5V247.6z"/>
				<path class="st4" d="M-54.9,232.1c5.1,0,8,0,8.9,0.1c3.8,0.3,6.5,1.2,7.9,2.7c1.2,1.2,2,3.2,2.3,6c0.1,1,0.1,3.2,0.1,6.6
					c0,3.4,0,5.6-0.1,6.6c-0.3,2.8-1.1,4.8-2.3,6c-1.4,1.5-4.1,2.4-8,2.7c-0.7,0.1-3.7,0.1-9,0.1c-5.3,0-8.2,0-9-0.1
					c-3.9-0.3-6.5-1.2-8-2.7c-1.2-1.2-2-3.2-2.3-6c-0.1-1-0.1-3.2-0.1-6.6s0-5.6,0.1-6.6c0.3-2.8,1-4.8,2.3-6c1.4-1.5,4.1-2.4,8-2.7
					C-63.2,232.1-60.2,232.1-54.9,232.1z M-54.9,235.2c-4.3,0-6.8,0-7.4,0c-3.6,0.2-5.9,0.8-6.8,1.8c-0.8,0.8-1.3,2.5-1.5,5
					c-0.1,0.8-0.1,2.6-0.1,5.3c0,2.7,0,4.5,0.1,5.3c0.2,2.5,0.7,4.2,1.5,5c1,1,3.1,1.6,6.6,1.8c0.5,0,3,0,7.4,0c4.5,0,6.9,0,7.4,0
					c3.4-0.2,5.6-0.8,6.6-1.8c0.8-0.8,1.3-2.5,1.5-5c0.1-0.8,0.1-2.6,0.1-5.3c0-4.5-0.2-7.4-0.6-8.6c-0.5-1.7-1.8-2.7-4-3.2
					C-45.6,235.4-49.2,235.2-54.9,235.2z"/>
				<path class="st4" d="M-28.4,262.4v-30h5.8l28.3,27.4v-27.4h3.6v30H3.6l-28.3-27.5v27.5H-28.4z"/>
				<path class="st4" d="M34.9,247.6h19.6c0,3.2-0.1,5.5-0.2,6.8c-0.4,3.8-1.8,6.2-4.3,7.3c-1.3,0.5-3.6,0.9-6.9,1c-0.6,0-2.9,0-6.9,0
					c-5.3,0-8.4,0-9.1-0.1c-3.9-0.3-6.6-1.2-8-2.7c-1.2-1.2-2-3.2-2.3-6c-0.1-1-0.1-3.2-0.1-6.6c0-3.4,0-5.7,0.1-6.6
					c0.3-2.8,1-4.8,2.3-6c1.4-1.5,4.3-2.4,8.5-2.7c0.5,0,3.8,0,9.7,0c3.8,0,6.2,0,7.1,0.1c3.1,0.2,5.4,0.8,6.7,1.7
					c1.9,1.3,2.9,3.7,3.1,7.3h-3.6c-0.1-2.3-0.4-3.8-1.1-4.5c-0.7-0.7-1.7-1.1-2.9-1.3c-1.2-0.2-3.9-0.3-8-0.3c-5,0-7.8,0-8.3,0
					c-4.1,0.2-6.7,0.6-7.7,1.3c-1.1,0.8-1.8,2.5-2,5.1c-0.1,0.7-0.1,2.6-0.1,5.8c0,2.7,0,4.5,0.1,5.3c0.2,2.5,0.7,4.2,1.5,5
					c0.9,1,2.9,1.5,6,1.8c0.7,0.1,2.9,0.1,6.6,0.1c5.8,0,9.6-0.1,11.2-0.3c1.6-0.2,2.8-0.7,3.6-1.6c0.6-0.6,0.9-1.3,1.1-2.2
					s0.3-2.5,0.4-4.9H34.9V247.6z"/>
			</g>
			<g class="st3">
				<path class="st5" d="M-155.6,275.2v-7.3h2.8h0.4c0.9,0,1.5,0.2,1.8,0.5s0.5,1,0.5,1.9c0,1.1-0.1,1.8-0.4,2.1s-0.9,0.5-1.9,0.5h-0.3
					h-1.5v2.4H-155.6z M-154.3,271.6h1.5c0.6,0,1-0.1,1.1-0.2c0.2-0.1,0.2-0.5,0.2-1c0-0.6-0.1-1-0.2-1.1c-0.1-0.1-0.5-0.2-1-0.2h-1.6
					V271.6z"/>
				<path class="st5" d="M-149.2,275.2v-7.3h3.4c0.8,0,1.4,0.2,1.7,0.5c0.3,0.3,0.5,0.9,0.5,1.7c0,0.7-0.1,1.3-0.2,1.5
					c-0.2,0.3-0.5,0.5-1,0.6v0.1c0.4,0,0.7,0.1,0.9,0.4s0.3,0.6,0.3,1.1v1.6h-1.3v-1.3c0-0.4-0.1-0.7-0.2-0.9c-0.1-0.2-0.4-0.2-0.8-0.2
					h-1.9v2.4H-149.2z M-147.9,271.6h1.9c0.4,0,0.7-0.1,0.9-0.3c0.1-0.2,0.2-0.5,0.2-1c0-0.5-0.1-0.8-0.2-1c-0.1-0.1-0.4-0.2-0.8-0.2
					h-1.9V271.6z"/>
				<path class="st5" d="M-139.9,267.8c0.9,0,1.6,0.1,2,0.2c0.4,0.1,0.7,0.4,0.8,0.7s0.3,0.7,0.3,1c0,0.3,0.1,0.9,0.1,1.7
					c0,0.9,0,1.5-0.1,1.9c0,0.3-0.1,0.7-0.3,1s-0.5,0.6-0.9,0.7c-0.4,0.2-1,0.2-1.8,0.2c-1.3,0-2.2-0.2-2.6-0.6
					c-0.4-0.4-0.6-1.4-0.6-2.9c0-1,0-1.6,0.1-2c0-0.4,0.2-0.7,0.4-1c0.2-0.3,0.5-0.5,0.9-0.7S-140.6,267.8-139.9,267.8z M-138.1,271.8
					v-1.1c0-0.7-0.1-1.1-0.3-1.3c-0.2-0.2-0.7-0.3-1.5-0.3c-0.8,0-1.3,0.1-1.4,0.4c-0.1,0.3-0.2,1.1-0.2,2.5c0,1.1,0.1,1.7,0.3,1.9
					c0.2,0.2,0.7,0.3,1.6,0.3c0.7,0,1.2-0.1,1.3-0.4C-138.2,273.5-138.1,272.8-138.1,271.8z"/>
				<path class="st5" d="M-131.7,267.9v5.1c0,0.9-0.1,1.6-0.4,1.9c-0.3,0.3-0.9,0.5-1.8,0.5c-1,0-1.6-0.1-1.9-0.4c-0.3-0.3-0.4-1-0.4-2
					v-0.5h1.3v0.1v0.5c0,0.5,0.1,0.8,0.2,0.9s0.4,0.2,0.8,0.2c0.4,0,0.7-0.1,0.8-0.2c0.1-0.1,0.2-0.5,0.2-1.1v-4.9H-131.7z"/>
				<path class="st5" d="M-129.3,269v1.9h3.2v1h-3.2v2.1h3.4v1.2h-4.7v-7.3h4.7v1.2H-129.3z"/>
				<path class="st5" d="M-120.7,272.6h1.3v0.2c0,1-0.2,1.7-0.5,2c-0.3,0.3-1.1,0.5-2.2,0.5c-1.3,0-2.1-0.2-2.5-0.6
					c-0.4-0.4-0.6-1.2-0.6-2.4V271c0-1.3,0.2-2.2,0.6-2.6c0.4-0.4,1.3-0.6,2.7-0.6c1,0,1.7,0.1,2,0.4s0.5,0.9,0.5,1.9v0.2h-1.3l0-0.2
					c0-0.5-0.1-0.8-0.2-0.9c-0.2-0.1-0.5-0.2-1.1-0.2c-0.8,0-1.3,0.1-1.5,0.3c-0.2,0.2-0.2,0.8-0.2,1.9c0,1.4,0.1,2.2,0.2,2.4
					c0.1,0.3,0.6,0.4,1.4,0.4c0.7,0,1.1-0.1,1.3-0.2c0.2-0.1,0.3-0.5,0.3-0.9V272.6z"/>
				<path class="st5" d="M-115.8,269.1v6.1h-1.3v-6.1h-2v-1.2h5.4v1.2H-115.8z"/>
				<path class="st5" d="M-102.4,267.9v7.3h-1.3v-4v-1.1l0.1-0.6V269h0l-0.2,0.5l-0.1,0.5l-0.3,1l-1.5,4.1l-1.2,0l-1.5-4.1l-0.3-1
					l-0.2-0.5l-0.2-0.5h0l0,0.5v0.5l0.1,1.1v4h-1.3v-7.3h2.1l1.2,3.4l0.3,1l0.2,0.5l0.2,0.5h0l0.2-0.5l0.1-0.5l0.3-1l1.2-3.4H-102.4z"
					/>
				<path class="st5" d="M-97.1,273.8h-3l-0.4,1.4h-1.4l2.3-7.3h2l2.3,7.3h-1.4L-97.1,273.8z M-97.4,272.8l-1.2-3.8l-1.2,3.8H-97.4z"/>
				<path class="st5" d="M-88.3,267.9v7.3h-2.2l-2-4l-0.5-1.1l-0.2-0.5l-0.2-0.5h0l0,0.5c0,0.3,0,0.6,0,0.9c0,0.3,0,0.5,0,0.5v4.2h-1.3
					v-7.3h2.2l1.8,3.7l0.5,1.2l0.3,0.6l0.3,0.6h0l0-0.5c0-0.3,0-0.6,0-0.9c0-0.3,0-0.5,0-0.5v-4.2H-88.3z"/>
				<path class="st5" d="M-82.9,273.8h-3l-0.4,1.4h-1.4l2.3-7.3h2l2.3,7.3h-1.4L-82.9,273.8z M-83.2,272.8l-1.2-3.8l-1.2,3.8H-83.2z"/>
				<path class="st5" d="M-77.8,271.3h3.1l0,0.2v0.8v0.5c0,1-0.2,1.7-0.6,2c-0.4,0.3-1.2,0.5-2.5,0.5c-1.2,0-2-0.2-2.4-0.6
					c-0.4-0.4-0.6-1.2-0.6-2.4v-0.9c0-1.5,0.2-2.5,0.6-2.9s1.2-0.6,2.5-0.6c1.3,0,2.1,0.1,2.4,0.4c0.3,0.3,0.5,0.9,0.5,1.9H-76
					c0-0.5-0.1-0.8-0.3-0.9c-0.2-0.1-0.6-0.2-1.4-0.2c-0.7,0-1.2,0.1-1.4,0.3s-0.3,0.7-0.3,1.4v0.7v1c0,0.7,0.1,1.2,0.3,1.4
					c0.2,0.2,0.7,0.3,1.5,0.3c0.7,0,1.1-0.1,1.3-0.3c0.2-0.2,0.3-0.6,0.3-1.2l0-0.3h-1.7V271.3z"/>
				<path class="st5" d="M-65.7,267.9v7.3H-67v-4v-1.1l0.1-0.6V269h0l-0.2,0.5l-0.1,0.5l-0.3,1l-1.5,4.1l-1.2,0l-1.5-4.1l-0.3-1
					l-0.2-0.5l-0.2-0.5h0l0,0.5v0.5l0.1,1.1v4h-1.3v-7.3h2.1l1.2,3.4l0.3,1l0.2,0.5l0.2,0.5h0l0.2-0.5l0.1-0.5l0.3-1l1.2-3.4H-65.7z"/>
				<path class="st5" d="M-63.3,269v1.9h3.2v1h-3.2v2.1h3.4v1.2h-4.7v-7.3h4.7v1.2H-63.3z"/>
				<path class="st5" d="M-52.5,267.9v7.3h-2.2l-2-4l-0.5-1.1l-0.2-0.5l-0.2-0.5h0l0,0.5c0,0.3,0,0.6,0,0.9c0,0.3,0,0.5,0,0.5v4.2h-1.3
					v-7.3h2.2l1.8,3.7l0.5,1.2l0.3,0.6l0.3,0.6h0l0-0.5c0-0.3,0-0.6,0-0.9c0-0.3,0-0.5,0-0.5v-4.2H-52.5z"/>
				<path class="st5" d="M-48.6,269.1v6.1h-1.3v-6.1h-2v-1.2h5.4v1.2H-48.6z"/>
				<path class="st5" d="M-39.1,273.8h-3l-0.4,1.4h-1.4l2.3-7.3h2l2.3,7.3h-1.4L-39.1,273.8z M-39.4,272.8l-1.2-3.8l-1.2,3.8H-39.4z"/>
				<path class="st5" d="M-30.3,267.9v7.3h-2.2l-2-4l-0.5-1.1l-0.2-0.5l-0.2-0.5h0l0,0.5c0,0.3,0,0.6,0,0.9c0,0.3,0,0.5,0,0.5v4.2h-1.3
					v-7.3h2.2l1.8,3.7l0.5,1.2l0.3,0.6l0.3,0.6h0l0-0.5c0-0.3,0-0.6,0-0.9c0-0.3,0-0.5,0-0.5v-4.2H-30.3z"/>
				<path class="st5" d="M-29.1,275.2v-7.3h3.4c0.9,0,1.6,0.2,2,0.7s0.6,1.2,0.6,2.3c0,1,0,1.8-0.1,2.2s-0.2,0.9-0.4,1.4
					s-0.9,0.8-2.1,0.8H-29.1z M-27.8,274h1.9c0.6,0,1-0.2,1.2-0.5c0.2-0.3,0.3-1,0.3-2c0-1.1-0.1-1.7-0.2-2c-0.2-0.3-0.5-0.4-1.1-0.4
					h-1.9V274z"/>
				<path class="st5" d="M-15.3,272.6h1.3v0.2c0,1-0.2,1.7-0.5,2c-0.3,0.3-1.1,0.5-2.2,0.5c-1.3,0-2.1-0.2-2.5-0.6
					c-0.4-0.4-0.6-1.2-0.6-2.4V271c0-1.3,0.2-2.2,0.6-2.6c0.4-0.4,1.3-0.6,2.7-0.6c1,0,1.7,0.1,2,0.4s0.5,0.9,0.5,1.9v0.2h-1.3l0-0.2
					c0-0.5-0.1-0.8-0.2-0.9c-0.2-0.1-0.5-0.2-1.1-0.2c-0.8,0-1.3,0.1-1.5,0.3c-0.2,0.2-0.2,0.8-0.2,1.9c0,1.4,0.1,2.2,0.2,2.4
					c0.1,0.3,0.6,0.4,1.4,0.4c0.7,0,1.1-0.1,1.3-0.2c0.2-0.1,0.3-0.5,0.3-0.9V272.6z"/>
				<path class="st5" d="M-10.5,267.8c0.9,0,1.6,0.1,2,0.2s0.7,0.4,0.8,0.7s0.3,0.7,0.3,1c0,0.3,0.1,0.9,0.1,1.7c0,0.9,0,1.5-0.1,1.9
					s-0.1,0.7-0.3,1s-0.5,0.6-0.9,0.7c-0.4,0.2-1,0.2-1.8,0.2c-1.3,0-2.2-0.2-2.6-0.6c-0.4-0.4-0.6-1.4-0.6-2.9c0-1,0-1.6,0.1-2
					c0-0.4,0.2-0.7,0.4-1c0.2-0.3,0.5-0.5,0.9-0.7S-11.2,267.8-10.5,267.8z M-8.7,271.8v-1.1c0-0.7-0.1-1.1-0.3-1.3s-0.7-0.3-1.5-0.3
					c-0.8,0-1.3,0.1-1.4,0.4c-0.1,0.3-0.2,1.1-0.2,2.5c0,1.1,0.1,1.7,0.3,1.9c0.2,0.2,0.7,0.3,1.6,0.3c0.7,0,1.2-0.1,1.3-0.4
					S-8.7,272.8-8.7,271.8z"/>
				<path class="st5" d="M-0.1,267.9v7.3h-2.2l-2-4l-0.5-1.1l-0.2-0.5l-0.2-0.5h0l0,0.5c0,0.3,0,0.6,0,0.9c0,0.3,0,0.5,0,0.5v4.2h-1.3
					v-7.3h2.2l1.8,3.7l0.5,1.2l0.3,0.6l0.3,0.6h0l0-0.5c0-0.3,0-0.6,0-0.9c0-0.3,0-0.5,0-0.5v-4.2H-0.1z"/>
				<path class="st5" d="M6.3,270H5v-0.2c0-0.4-0.1-0.6-0.3-0.8c-0.2-0.1-0.5-0.2-1-0.2c-0.6,0-1,0.1-1.2,0.2c-0.2,0.1-0.3,0.4-0.3,0.8
					c0,0.5,0.1,0.8,0.3,0.9c0.2,0.1,0.7,0.2,1.5,0.2c1,0,1.7,0.1,2,0.4c0.3,0.3,0.5,0.8,0.5,1.6c0,1-0.2,1.6-0.5,1.9
					c-0.3,0.3-1.1,0.4-2.2,0.4c-1.2,0-1.9-0.1-2.3-0.4c-0.4-0.3-0.5-0.8-0.5-1.7v-0.3h1.3v0.2c0,0.5,0.1,0.8,0.3,0.9
					c0.2,0.1,0.6,0.2,1.4,0.2c0.6,0,1-0.1,1.1-0.2c0.2-0.1,0.2-0.4,0.2-0.9c0-0.4-0.1-0.6-0.2-0.7c-0.1-0.1-0.4-0.2-0.8-0.2l-0.7,0
					c-1.1,0-1.8-0.1-2.1-0.4c-0.3-0.3-0.5-0.8-0.5-1.7c0-0.9,0.2-1.5,0.5-1.8c0.4-0.3,1.1-0.4,2.2-0.4c1,0,1.7,0.1,2.1,0.4
					c0.4,0.3,0.5,0.8,0.5,1.5V270z"/>
				<path class="st5" d="M10.1,269.1v6.1H8.8v-6.1h-2v-1.2h5.4v1.2H10.1z"/>
				<path class="st5" d="M12.8,275.2v-7.3h3.4c0.8,0,1.4,0.2,1.7,0.5c0.3,0.3,0.5,0.9,0.5,1.7c0,0.7-0.1,1.3-0.2,1.5
					c-0.2,0.3-0.5,0.5-1,0.6v0.1c0.4,0,0.7,0.1,0.9,0.4c0.2,0.2,0.3,0.6,0.3,1.1v1.6H17v-1.3c0-0.4-0.1-0.7-0.2-0.9
					c-0.1-0.2-0.4-0.2-0.8-0.2h-1.9v2.4H12.8z M14.1,271.6H16c0.4,0,0.7-0.1,0.9-0.3c0.1-0.2,0.2-0.5,0.2-1c0-0.5-0.1-0.8-0.2-1
					c-0.1-0.1-0.4-0.2-0.8-0.2h-1.9V271.6z"/>
				<path class="st5" d="M23.9,267.9h1.3v4.9c0,1-0.2,1.7-0.5,2c-0.4,0.3-1.1,0.5-2.2,0.5c-1.2,0-2.1-0.2-2.4-0.5c-0.4-0.3-0.6-1-0.6-2
					v-5h1.3v5c0,0.5,0.1,0.9,0.3,1c0.2,0.1,0.6,0.2,1.3,0.2c0.7,0,1.1-0.1,1.3-0.2c0.2-0.1,0.3-0.5,0.3-1.1V267.9z"/>
				<path class="st5" d="M30.7,272.6H32v0.2c0,1-0.2,1.7-0.5,2c-0.3,0.3-1.1,0.5-2.2,0.5c-1.3,0-2.1-0.2-2.5-0.6
					c-0.4-0.4-0.6-1.2-0.6-2.4V271c0-1.3,0.2-2.2,0.6-2.6c0.4-0.4,1.3-0.6,2.7-0.6c1,0,1.7,0.1,2,0.4s0.5,0.9,0.5,1.9v0.2h-1.3l0-0.2
					c0-0.5-0.1-0.8-0.2-0.9c-0.2-0.1-0.5-0.2-1.1-0.2c-0.8,0-1.3,0.1-1.5,0.3c-0.2,0.2-0.2,0.8-0.2,1.9c0,1.4,0.1,2.2,0.2,2.4
					c0.1,0.3,0.6,0.4,1.4,0.4c0.7,0,1.1-0.1,1.3-0.2c0.2-0.1,0.3-0.5,0.3-0.9V272.6z"/>
				<path class="st5" d="M35.6,269.1v6.1h-1.3v-6.1h-2v-1.2h5.4v1.2H35.6z"/>
				<path class="st5" d="M39.6,267.9v7.3h-1.3v-7.3H39.6z"/>
				<path class="st5" d="M43.5,267.8c0.9,0,1.6,0.1,2,0.2c0.4,0.1,0.7,0.4,0.8,0.7s0.3,0.7,0.3,1c0,0.3,0.1,0.9,0.1,1.7
					c0,0.9,0,1.5-0.1,1.9c0,0.3-0.1,0.7-0.3,1s-0.5,0.6-0.9,0.7c-0.4,0.2-1,0.2-1.8,0.2c-1.3,0-2.2-0.2-2.6-0.6s-0.6-1.4-0.6-2.9
					c0-1,0-1.6,0.1-2c0-0.4,0.2-0.7,0.4-1c0.2-0.3,0.5-0.5,0.9-0.7S42.8,267.8,43.5,267.8z M45.3,271.8v-1.1c0-0.7-0.1-1.1-0.3-1.3
					c-0.2-0.2-0.7-0.3-1.5-0.3c-0.8,0-1.3,0.1-1.4,0.4c-0.1,0.3-0.2,1.1-0.2,2.5c0,1.1,0.1,1.7,0.3,1.9c0.2,0.2,0.7,0.3,1.6,0.3
					c0.7,0,1.2-0.1,1.3-0.4C45.2,273.5,45.3,272.8,45.3,271.8z"/>
				<path class="st5" d="M53.9,267.9v7.3h-2.2l-2-4l-0.5-1.1l-0.2-0.5l-0.2-0.5h0l0,0.5c0,0.3,0,0.6,0,0.9c0,0.3,0,0.5,0,0.5v4.2h-1.3
					v-7.3h2.2l1.8,3.7l0.5,1.2l0.3,0.6l0.3,0.6h0l0-0.5c0-0.3,0-0.6,0-0.9c0-0.3,0-0.5,0-0.5v-4.2H53.9z"/>
			</g>
			</svg>