<?xml version="1.0" encoding="utf-8"?>
<!-- Generator: Adobe Illustrator 19.0.0, SVG Export Plug-In . SVG Version: 6.00 Build 0)  -->
<svg version="1.1" id="Layer_1" xmlns="http://www.w3.org/2000/svg" xmlns:xlink="http://www.w3.org/1999/xlink" x="0px" y="0px"
	 viewBox="0 0 927 256" style="enable-background:new 0 0 927 256;" xml:space="preserve">
<style type="text/css">
	.st0{fill:#737C28;}
</style>
<g id="XMLID_41_">
	<path id="XMLID_42_" class="st0" d="M116.3,43.9h9.1v1.6c0,6.7-1.2,11.1-3.6,13.2c-2.4,2.1-7.5,3.1-15.4,3.1
		c-8.9,0-14.7-1.2-17.5-3.7c-2.7-2.5-4.1-7.9-4.1-16.3v-8.8c0-8.8,1.4-14.5,4.3-17.2c2.9-2.7,9.1-4,18.7-4c7,0,11.6,1,13.8,3
		c2.2,2,3.4,6.2,3.4,12.7v1.1h-9.1l-0.1-1.3c0-3.2-0.6-5.2-1.7-6.1c-1.1-0.9-3.6-1.3-7.6-1.3c-5.8,0-9.3,0.7-10.5,2.1
		c-1.2,1.4-1.7,5.6-1.7,12.8c0,9.2,0.5,14.7,1.5,16.4c1,1.7,4.2,2.6,9.5,2.6c4.6,0,7.5-0.5,8.9-1.4c1.3-0.9,2-3,2-6.3V43.9z"/>
	<path id="XMLID_44_" class="st0" d="M161.1,27v34.4h-8.2l0.4-5.9c-0.9,2.2-2.2,3.8-4,4.8c-1.7,1-4,1.5-6.9,1.5
		c-4,0-6.8-0.9-8.7-2.8c-1.8-1.9-2.7-4.8-2.7-8.9V27h8.2v21.2c0,2.8,0.4,4.7,1.2,5.6c0.8,0.9,2.3,1.4,4.7,1.4c3.1,0,5.2-0.7,6.3-2
		c1.1-1.3,1.6-3.8,1.6-7.4V27H161.1z"/>
	<path id="XMLID_46_" class="st0" d="M197.4,36.4h-7.9l-0.1-0.7c-0.2-1.5-0.7-2.5-1.4-2.9c-0.7-0.4-2.5-0.6-5.3-0.6
		c-2.9,0-4.7,0.2-5.6,0.7c-0.8,0.5-1.2,1.6-1.2,3.4c0,1.9,0.4,3.1,1.2,3.5c0.8,0.4,3.3,0.7,7.5,0.7c5.7,0,9.4,0.7,11.2,2
		c1.8,1.4,2.7,4,2.7,8.1c0,4.2-1.1,7.1-3.4,8.7c-2.3,1.6-6.4,2.4-12.4,2.4c-5.9,0-9.9-0.7-12-2.1c-2.1-1.4-3.2-4.2-3.2-8.2v-1h8.2
		v1.1c0,1.8,0.4,2.9,1.4,3.5c0.9,0.6,2.8,0.8,5.7,0.8c3,0,5-0.3,6-0.9c1-0.6,1.5-1.8,1.5-3.6c0-1.7-0.3-2.9-0.9-3.5
		c-0.6-0.6-1.9-0.9-3.9-0.9c-7.3,0-12.1-0.7-14.4-2c-2.3-1.3-3.4-4.1-3.4-8.2c0-4.2,1-7,3.1-8.4c2-1.4,6.1-2.1,12.2-2.1
		c5.6,0,9.4,0.7,11.3,2C196.4,29.9,197.4,32.6,197.4,36.4z"/>
	<path id="XMLID_48_" class="st0" d="M226.9,27v6.3H214v17.3c0,2,0.2,3.3,0.7,4c0.4,0.6,1.3,1,2.7,1c1.6,0,2.7-0.4,3.3-1.1
		c0.5-0.8,0.8-2.3,0.8-4.8v-1.4h6.8v2c0,4.5-0.8,7.6-2.4,9.3c-1.6,1.6-4.4,2.5-8.6,2.5c-4.5,0-7.5-0.7-9.1-2.1
		c-1.6-1.4-2.4-4.1-2.4-8.1V33.3h-4.4V27h4.4v-7.7h8.2V27H226.9z"/>
	<path id="XMLID_50_" class="st0" d="M247,26.6c6.7,0,11.2,1,13.2,3.1c2.1,2.1,3.1,6.5,3.1,13.4c0,7.8-1,12.9-3,15.3
		c-2,2.4-6.2,3.5-12.7,3.5c-6.8,0-11.2-1.1-13.2-3.4c-2-2.2-3-7.1-3-14.7c0-7.1,1-11.7,3-13.9C236.4,27.7,240.6,26.6,247,26.6z
		 M247.4,33.1c-3.3,0-5.4,0.6-6.3,1.9c-0.9,1.3-1.3,4.2-1.3,8.9c0,5.2,0.4,8.4,1.3,9.7c0.8,1.3,3,1.9,6.4,1.9c3.3,0,5.4-0.7,6.3-2
		c0.9-1.4,1.3-4.7,1.3-10c0-4.5-0.4-7.3-1.3-8.5C252.8,33.7,250.7,33.1,247.4,33.1z"/>
	<path id="XMLID_53_" class="st0" d="M270.1,27h8.2l-0.2,5.3c0.9-2,2.2-3.4,3.9-4.3c1.7-0.9,3.8-1.4,6.5-1.4c6.1,0,9.5,2.1,10.2,6.4
		c1.8-4.3,5.4-6.4,10.8-6.4c4.1,0,7.1,0.9,8.9,2.8c1.8,1.8,2.6,5,2.6,9.3v22.8h-8.2v-21c0-2.8-0.4-4.6-1.2-5.6
		c-0.8-1-2.3-1.5-4.6-1.5c-2.8,0-4.8,0.6-5.9,1.7c-1.1,1.1-1.6,3.2-1.6,6.3v20.1h-8.2V40.1c0-2.8-0.4-4.6-1.1-5.5s-2.2-1.3-4.6-1.3
		c-2.7,0-4.6,0.6-5.8,1.8c-1.2,1.2-1.7,3.3-1.7,6.3v20h-8.2V27z"/>
	<path id="XMLID_55_" class="st0" d="M347.7,27h8.2l-0.5,4.8c1.2-2,2.4-3.4,3.8-4.2c1.3-0.8,3.2-1.1,5.6-1.1c3.2,0,5.5,0.9,6.9,2.6
		c1.3,1.7,2,4.6,2,8.8v2.5h-7.7l0.1-1.8c0-2.2-0.3-3.6-0.9-4.3s-1.7-1.1-3.3-1.1c-2.2,0-3.7,0.6-4.6,1.8c-0.9,1.2-1.3,3.3-1.3,6.3
		v20.3h-8.2V27z"/>
	<path id="XMLID_57_" class="st0" d="M399.8,50.5h8.1v0.7v0.4c0,3.8-1.1,6.5-3.3,8.1c-2.2,1.5-6,2.3-11.4,2.3
		c-6.7,0-11.1-1.1-13.2-3.4c-2.1-2.3-3.2-7-3.2-14.2c0-7,1-11.7,3.1-14.1c2.1-2.4,6.2-3.6,12.3-3.6c6.4,0,10.6,1.1,12.6,3.2
		c2,2.1,3.1,6.5,3.1,13.1v2.8h-22.8V47c0,3.6,0.5,5.9,1.5,7c1,1.1,3,1.7,6.2,1.7c3,0,4.9-0.3,5.8-1
		C399.4,54.1,399.8,52.7,399.8,50.5z M385.1,40.5h14.7v-1.3c0-2.7-0.5-4.5-1.4-5.3c-0.9-0.8-2.9-1.2-6-1.2c-3.1,0-5,0.5-5.9,1.4
		C385.6,35,385.1,37.1,385.1,40.5z"/>
	<path id="XMLID_60_" class="st0" d="M414.7,27h8.2l-0.2,5.3c0.9-2,2.2-3.4,3.9-4.3c1.7-0.9,3.8-1.4,6.5-1.4c6.1,0,9.5,2.1,10.2,6.4
		c1.8-4.3,5.4-6.4,10.8-6.4c4.1,0,7.1,0.9,8.9,2.8c1.8,1.8,2.6,5,2.6,9.3v22.8h-8.2v-21c0-2.8-0.4-4.6-1.2-5.6
		c-0.8-1-2.3-1.5-4.6-1.5c-2.8,0-4.8,0.6-5.9,1.7c-1.1,1.1-1.6,3.2-1.6,6.3v20.1H436V40.1c0-2.8-0.4-4.6-1.1-5.5s-2.2-1.3-4.6-1.3
		c-2.7,0-4.6,0.6-5.8,1.8c-1.2,1.2-1.7,3.3-1.7,6.3v20h-8.2V27z"/>
	<path id="XMLID_62_" class="st0" d="M488.3,26.6c6.7,0,11.2,1,13.2,3.1c2.1,2.1,3.1,6.5,3.1,13.4c0,7.8-1,12.9-3,15.3
		c-2,2.4-6.2,3.5-12.7,3.5c-6.8,0-11.2-1.1-13.2-3.4c-2-2.2-3-7.1-3-14.7c0-7.1,1-11.7,3-13.9C477.7,27.7,481.9,26.6,488.3,26.6z
		 M488.7,33.1c-3.3,0-5.4,0.6-6.3,1.9c-0.9,1.3-1.3,4.2-1.3,8.9c0,5.2,0.4,8.4,1.3,9.7c0.8,1.3,3,1.9,6.4,1.9c3.3,0,5.4-0.7,6.3-2
		c0.9-1.4,1.3-4.7,1.3-10c0-4.5-0.4-7.3-1.3-8.5C494.1,33.7,492,33.1,488.7,33.1z"/>
	<path id="XMLID_65_" class="st0" d="M541.5,12.2v49.2h-8l0.3-5.5c-0.9,2.2-2.2,3.7-3.8,4.6c-1.6,0.9-3.8,1.4-6.7,1.4
		c-5.3,0-8.8-1.2-10.6-3.6c-1.8-2.4-2.7-7.1-2.7-14.2c0-6.8,0.9-11.4,2.7-13.9c1.8-2.5,5.2-3.7,10.1-3.7c2.9,0,5.2,0.4,6.8,1.2
		c1.6,0.8,2.7,2.2,3.4,4.2l0.1-19.8H541.5z M525.6,33.2c-3,0-4.9,0.7-5.8,2c-0.9,1.3-1.3,4.2-1.3,8.7c0,4.9,0.4,8.1,1.3,9.5
		c0.9,1.4,2.9,2.1,6.1,2.1c3.1,0,5.1-0.7,6-2.1c0.9-1.4,1.4-4.7,1.4-9.7c0-4.3-0.5-7.1-1.5-8.4C530.9,33.9,528.8,33.2,525.6,33.2z"
		/>
	<path id="XMLID_68_" class="st0" d="M571.2,50.5h8.1v0.7v0.4c0,3.8-1.1,6.5-3.3,8.1c-2.2,1.5-6,2.3-11.4,2.3
		c-6.7,0-11.1-1.1-13.2-3.4c-2.1-2.3-3.2-7-3.2-14.2c0-7,1-11.7,3.1-14.1c2.1-2.4,6.2-3.6,12.3-3.6c6.4,0,10.6,1.1,12.6,3.2
		s3.1,6.5,3.1,13.1v2.8h-22.8V47c0,3.6,0.5,5.9,1.5,7c1,1.1,3,1.7,6.2,1.7c3,0,4.9-0.3,5.8-1C570.8,54.1,571.2,52.7,571.2,50.5z
		 M556.6,40.5h14.7v-1.3c0-2.7-0.5-4.5-1.4-5.3c-0.9-0.8-2.9-1.2-6-1.2c-3.1,0-5,0.5-5.9,1.4S556.6,37.1,556.6,40.5z"/>
	<path id="XMLID_71_" class="st0" d="M594.3,12.2v49.2h-8.2V12.2H594.3z"/>
	<path id="XMLID_73_" class="st0" d="M630.4,36.4h-7.9l-0.1-0.7c-0.2-1.5-0.7-2.5-1.4-2.9c-0.7-0.4-2.5-0.6-5.3-0.6
		c-2.9,0-4.7,0.2-5.6,0.7c-0.8,0.5-1.2,1.6-1.2,3.4c0,1.9,0.4,3.1,1.2,3.5c0.8,0.4,3.3,0.7,7.5,0.7c5.7,0,9.4,0.7,11.2,2
		c1.8,1.4,2.7,4,2.7,8.1c0,4.2-1.1,7.1-3.4,8.7c-2.3,1.6-6.4,2.4-12.4,2.4c-5.9,0-9.9-0.7-12-2.1c-2.1-1.4-3.2-4.2-3.2-8.2v-1h8.2
		v1.1c0,1.8,0.5,2.9,1.4,3.5c0.9,0.6,2.8,0.8,5.7,0.8c3,0,5-0.3,6-0.9c1-0.6,1.5-1.8,1.5-3.6c0-1.7-0.3-2.9-0.9-3.5
		c-0.6-0.6-1.9-0.9-3.9-0.9c-7.3,0-12.1-0.7-14.4-2c-2.3-1.3-3.4-4.1-3.4-8.2c0-4.2,1-7,3.1-8.4c2-1.4,6.1-2.1,12.2-2.1
		c5.6,0,9.4,0.7,11.3,2C629.4,29.9,630.4,32.6,630.4,36.4z"/>
	<path id="XMLID_75_" class="st0" d="M664.3,12.2v7.1h-8.2v-7.1H664.3z M664.3,27v34.4h-8.2V27H664.3z"/>
	<path id="XMLID_78_" class="st0" d="M672.3,27h8.2l-0.3,5.8c1.7-4.2,5.2-6.3,10.6-6.3c4.4,0,7.5,0.8,9.2,2.5s2.6,4.7,2.6,8.9v23.4
		h-8.2V40.7v-1.3c0-2.4-0.4-4-1.3-4.8c-0.8-0.9-2.4-1.3-4.7-1.3c-2.7,0-4.8,0.6-6.1,1.8c-1.3,1.2-2,3.2-2,5.9v20.4h-8.3V27z"/>
	<path id="XMLID_80_" class="st0" d="M750.6,27v6.3h-12.9v17.3c0,2,0.2,3.3,0.7,4c0.4,0.6,1.3,1,2.7,1c1.6,0,2.7-0.4,3.3-1.1
		c0.5-0.8,0.8-2.3,0.8-4.8v-1.4h6.8v2c0,4.5-0.8,7.6-2.3,9.3c-1.6,1.6-4.4,2.5-8.6,2.5c-4.5,0-7.5-0.7-9.1-2.1
		c-1.6-1.4-2.4-4.1-2.4-8.1V33.3h-4.4V27h4.4v-7.7h8.2V27H750.6z"/>
	<path id="XMLID_82_" class="st0" d="M764.5,12.2v20.5c1-2.4,2.2-4,3.7-4.8c1.5-0.9,3.8-1.3,6.9-1.3c4.1,0,7.1,0.9,8.9,2.7
		c1.8,1.8,2.7,4.7,2.7,8.8v23.4h-8.2V40.3v-1c0-2.2-0.4-3.8-1.3-4.6c-0.9-0.9-2.4-1.3-4.6-1.3c-3.1,0-5.2,0.6-6.4,1.9
		c-1.2,1.3-1.8,3.5-1.8,6.7v19.5h-8.2V12.2H764.5z"/>
	<path id="XMLID_84_" class="st0" d="M816.5,50.5h8.1v0.7v0.4c0,3.8-1.1,6.5-3.3,8.1c-2.2,1.5-6,2.3-11.4,2.3
		c-6.7,0-11.1-1.1-13.2-3.4c-2.1-2.3-3.2-7-3.2-14.2c0-7,1-11.7,3.1-14.1c2.1-2.4,6.2-3.6,12.3-3.6c6.4,0,10.6,1.1,12.6,3.2
		s3.1,6.5,3.1,13.1v2.8h-22.8V47c0,3.6,0.5,5.9,1.5,7c1,1.1,3,1.7,6.2,1.7c3,0,4.9-0.3,5.8-1C816.1,54.1,816.5,52.7,816.5,50.5z
		 M801.8,40.5h14.7v-1.3c0-2.7-0.5-4.5-1.4-5.3c-0.9-0.8-2.9-1.2-6-1.2c-3.1,0-5,0.5-5.9,1.4S801.8,37.1,801.8,40.5z"/>
	<path id="XMLID_87_" class="st0" d="M128.1,115.5v35.1c0,5.7-1.1,9.6-3.4,11.6c-2.2,2-6.5,3.1-12.7,3.1c-5.7,0-9.5-0.8-11.4-2.3
		c-1.9-1.5-2.9-4.7-2.9-9.5h7.9c0,2.3,0.4,3.8,1.2,4.4c0.8,0.6,2.6,1,5.5,1c2.8,0,4.8-0.5,5.9-1.4c1.1-0.9,1.6-2.6,1.6-5.1v-7.7
		c-0.8,1.9-2,3.3-3.7,4.2c-1.6,0.9-3.8,1.3-6.5,1.3c-4.9,0-8.3-1.2-10.3-3.7c-1.9-2.5-2.9-6.9-2.9-13.2c0-7,0.9-11.8,2.7-14.3
		c1.8-2.5,5.2-3.8,10.2-3.8c3,0,5.3,0.5,6.9,1.4c1.6,0.9,2.8,2.5,3.7,4.8l-0.2-5.7H128.1z M112.1,121.7c-3.1,0-5,0.6-5.9,1.9
		c-0.9,1.3-1.3,4.2-1.3,8.8c0,4.7,0.4,7.7,1.3,9.1c0.9,1.3,2.9,2,6.1,2c3.3,0,5.4-0.7,6.3-2.1c0.9-1.4,1.4-4.6,1.4-9.6
		c0-4.2-0.5-6.9-1.5-8.2C117.5,122.3,115.4,121.7,112.1,121.7z"/>
	<path id="XMLID_90_" class="st0" d="M136.3,115.5h8.2l-0.5,4.8c1.2-2,2.4-3.4,3.8-4.2c1.3-0.8,3.2-1.1,5.6-1.1
		c3.2,0,5.5,0.9,6.9,2.6c1.3,1.7,2,4.6,2,8.8v2.5h-7.7l0.1-1.8c0-2.2-0.3-3.6-0.9-4.3s-1.7-1.1-3.3-1.1c-2.2,0-3.7,0.6-4.6,1.8
		c-0.9,1.2-1.3,3.3-1.3,6.3v20.3h-8.2V115.5z"/>
	<path id="XMLID_92_" class="st0" d="M188.4,138.9h8.1v0.7v0.4c0,3.8-1.1,6.5-3.3,8.1c-2.2,1.5-6,2.3-11.4,2.3
		c-6.7,0-11.1-1.1-13.2-3.4c-2.1-2.3-3.2-7-3.2-14.2c0-7,1-11.7,3.1-14.1c2.1-2.4,6.2-3.6,12.3-3.6c6.4,0,10.6,1.1,12.6,3.2
		c2,2.1,3.1,6.5,3.1,13.1v2.8h-22.8v1.3c0,3.6,0.5,5.9,1.5,7c1,1.1,3,1.7,6.2,1.7c3,0,4.9-0.3,5.8-1
		C188,142.6,188.4,141.1,188.4,138.9z M173.7,129h14.7v-1.3c0-2.7-0.5-4.5-1.4-5.3c-0.9-0.8-2.9-1.2-6-1.2c-3.1,0-5,0.5-5.9,1.4
		C174.2,123.5,173.7,125.6,173.7,129z"/>
	<path id="XMLID_95_" class="st0" d="M211.7,125.4h-8.3c0-4.2,1-7,2.9-8.3c1.9-1.4,5.7-2.1,11.5-2.1c5.9,0,9.9,0.9,12,2.6
		c2.1,1.7,3.2,5,3.2,9.8v22.5h-8.2l0.4-4.7c-1,2-2.2,3.3-3.8,4.1c-1.5,0.7-3.9,1.1-7,1.1c-4.5,0-7.7-0.8-9.6-2.4
		c-1.9-1.6-2.8-4.3-2.8-8.2c0-3.9,1-6.7,2.9-8.4c1.9-1.7,5.1-2.5,9.6-2.5c3.3,0,5.7,0.3,7.1,0.8c1.4,0.5,2.5,1.6,3.2,3.1l0.1-5.6
		c0-2.8-0.4-4.6-1.3-5.5c-0.9-0.9-2.7-1.3-5.5-1.3c-2.7,0-4.4,0.3-5.2,0.9C212.1,122,211.7,123.3,211.7,125.4z M217.5,134.5
		c-2.8,0-4.7,0.3-5.7,1c-1,0.6-1.4,1.9-1.4,3.8c0,2.1,0.5,3.6,1.4,4.2c0.9,0.7,2.9,1,5.8,1c2.8,0,4.8-0.4,5.8-1.1
		c1-0.7,1.6-2.1,1.6-4.1c0-1.9-0.5-3.2-1.6-3.8C222.4,134.8,220.4,134.5,217.5,134.5z"/>
	<path id="XMLID_98_" class="st0" d="M263,115.5v6.3h-12.9V139c0,2,0.2,3.3,0.7,4c0.4,0.6,1.3,1,2.7,1c1.6,0,2.7-0.4,3.3-1.1
		c0.5-0.8,0.8-2.3,0.8-4.8v-1.4h6.8v2c0,4.5-0.8,7.6-2.4,9.3c-1.6,1.6-4.4,2.5-8.6,2.5c-4.5,0-7.5-0.7-9.1-2.1
		c-1.6-1.4-2.4-4.1-2.4-8.1v-18.4h-4.4v-6.3h4.4v-7.7h8.2v7.7H263z"/>
	<path id="XMLID_100_" class="st0" d="M290.6,138.9h8.1v0.7v0.4c0,3.8-1.1,6.5-3.3,8.1c-2.2,1.5-6,2.3-11.4,2.3
		c-6.7,0-11.1-1.1-13.2-3.4c-2.1-2.3-3.2-7-3.2-14.2c0-7,1-11.7,3.1-14.1c2.1-2.4,6.2-3.6,12.3-3.6c6.4,0,10.6,1.1,12.6,3.2
		c2,2.1,3.1,6.5,3.1,13.1v2.8h-22.8v1.3c0,3.6,0.5,5.9,1.5,7c1,1.1,3,1.7,6.2,1.7c3,0,4.9-0.3,5.8-1
		C290.1,142.6,290.6,141.1,290.6,138.9z M275.9,129h14.7v-1.3c0-2.7-0.5-4.5-1.4-5.3c-0.9-0.8-2.9-1.2-6-1.2c-3.1,0-5,0.5-5.9,1.4
		C276.3,123.5,275.9,125.6,275.9,129z"/>
	<path id="XMLID_103_" class="st0" d="M305.7,115.5h8.2l-0.5,4.8c1.2-2,2.4-3.4,3.8-4.2c1.3-0.8,3.2-1.1,5.6-1.1
		c3.2,0,5.5,0.9,6.9,2.6c1.3,1.7,2,4.6,2,8.8v2.5h-7.7l0.1-1.8c0-2.2-0.3-3.6-0.9-4.3s-1.7-1.1-3.3-1.1c-2.2,0-3.7,0.6-4.6,1.8
		c-0.9,1.2-1.3,3.3-1.3,6.3v20.3h-8.2V115.5z"/>
	<path id="XMLID_105_" class="st0" d="M363.7,100.7v49.2h-9.3v-49.2H363.7z"/>
	<path id="XMLID_107_" class="st0" d="M371.9,115.5h8.2l-0.3,5.8c1.7-4.2,5.2-6.3,10.6-6.3c4.4,0,7.5,0.8,9.2,2.5
		c1.8,1.7,2.6,4.7,2.6,8.9v23.4h-8.2v-20.7v-1.3c0-2.4-0.4-4-1.3-4.8c-0.8-0.9-2.4-1.3-4.7-1.3c-2.7,0-4.8,0.6-6.1,1.8
		c-1.3,1.2-2,3.2-2,5.9v20.4h-8.3V115.5z"/>
	<path id="XMLID_109_" class="st0" d="M440.5,100.7v49.2h-8l0.3-5.5c-0.9,2.2-2.2,3.7-3.8,4.6c-1.6,0.9-3.8,1.4-6.7,1.4
		c-5.3,0-8.8-1.2-10.6-3.6c-1.8-2.4-2.7-7.1-2.7-14.2c0-6.8,0.9-11.4,2.7-13.9c1.8-2.5,5.2-3.7,10.1-3.7c2.9,0,5.2,0.4,6.8,1.2
		c1.6,0.8,2.7,2.2,3.4,4.2l0.1-19.8H440.5z M424.5,121.7c-3,0-4.9,0.7-5.8,2c-0.9,1.3-1.3,4.2-1.3,8.7c0,4.9,0.4,8.1,1.3,9.5
		c0.9,1.4,2.9,2.1,6.1,2.1c3.1,0,5.1-0.7,6-2.1c0.9-1.4,1.4-4.7,1.4-9.7c0-4.3-0.5-7.1-1.5-8.4C429.8,122.3,427.7,121.7,424.5,121.7
		z"/>
	<path id="XMLID_112_" class="st0" d="M456.6,100.7v7.1h-8.2v-7.1H456.6z M456.6,115.5v34.4h-8.2v-34.4H456.6z"/>
	<path id="XMLID_115_" class="st0" d="M473,125.4h-8.3c0-4.2,1-7,2.9-8.3c1.9-1.4,5.7-2.1,11.5-2.1c5.9,0,9.9,0.9,12,2.6
		c2.1,1.7,3.2,5,3.2,9.8v22.5h-8.2l0.4-4.7c-1,2-2.2,3.3-3.8,4.1c-1.5,0.7-3.9,1.1-7,1.1c-4.5,0-7.7-0.8-9.6-2.4
		c-1.9-1.6-2.8-4.3-2.8-8.2c0-3.9,1-6.7,2.9-8.4c1.9-1.7,5.1-2.5,9.6-2.5c3.3,0,5.7,0.3,7.1,0.8c1.4,0.5,2.5,1.6,3.2,3.1l0.1-5.6
		c0-2.8-0.4-4.6-1.3-5.5c-0.9-0.9-2.7-1.3-5.5-1.3c-2.7,0-4.4,0.3-5.2,0.9C473.4,122,473,123.3,473,125.4z M478.8,134.5
		c-2.8,0-4.7,0.3-5.7,1c-1,0.6-1.4,1.9-1.4,3.8c0,2.1,0.5,3.6,1.4,4.2c0.9,0.7,2.9,1,5.8,1c2.8,0,4.8-0.4,5.8-1.1
		c1-0.7,1.6-2.1,1.6-4.1c0-1.9-0.5-3.2-1.6-3.8C483.6,134.8,481.7,134.5,478.8,134.5z"/>
	<path id="XMLID_118_" class="st0" d="M502.4,115.5h8.2l-0.3,5.8c1.7-4.2,5.2-6.3,10.6-6.3c4.4,0,7.5,0.8,9.2,2.5s2.6,4.7,2.6,8.9
		v23.4h-8.2v-20.7v-1.3c0-2.4-0.4-4-1.3-4.8c-0.8-0.9-2.4-1.3-4.7-1.3c-2.7,0-4.8,0.6-6.1,1.8c-1.3,1.2-2,3.2-2,5.9v20.4h-8.3V115.5
		z"/>
	<path id="XMLID_120_" class="st0" d="M627,100.7L614,149.9l-13.5,0l-6.7-25.2l-2.2-9.1l-0.7-3.1h-0.4l-0.7,3
		c-0.5,2.1-0.9,3.7-1.2,4.9s-0.7,2.6-1.2,4.3l-6.9,25.2l-13.4,0l-12.5-49.2h9.3l6.9,27l1.6,7.2l0.7,3.6l0.7,3.6l0.3,0l0.8-3.6
		l0.9-3.6l1.9-7.2l7.4-27.1h10.8l7.3,27l1.8,7.2l0.8,3.5l0.9,3.6h0.3l0.7-3.6l0.8-3.6c0.3-1.4,0.6-2.8,0.9-4.2
		c0.3-1.4,0.6-2.4,0.7-2.9l7.1-27H627z"/>
	<path id="XMLID_122_" class="st0" d="M652.7,138.9h8.1v0.7v0.4c0,3.8-1.1,6.5-3.3,8.1c-2.2,1.5-6,2.3-11.4,2.3
		c-6.7,0-11.1-1.1-13.2-3.4c-2.1-2.3-3.2-7-3.2-14.2c0-7,1-11.7,3.1-14.1c2.1-2.4,6.2-3.6,12.3-3.6c6.4,0,10.6,1.1,12.6,3.2
		s3.1,6.5,3.1,13.1v2.8H638v1.3c0,3.6,0.5,5.9,1.5,7c1,1.1,3,1.7,6.2,1.7c3,0,4.9-0.3,5.8-1C652.3,142.6,652.7,141.1,652.7,138.9z
		 M638,129h14.7v-1.3c0-2.7-0.5-4.5-1.4-5.3c-0.9-0.8-2.9-1.2-6-1.2c-3.1,0-5,0.5-5.9,1.4S638,125.6,638,129z"/>
	<path id="XMLID_125_" class="st0" d="M675.8,100.7v49.2h-8.2v-49.2H675.8z"/>
	<path id="XMLID_127_" class="st0" d="M691.9,100.7v49.2h-8.2v-49.2H691.9z"/>
	<path id="XMLID_129_" class="st0" d="M728,124.9h-7.9l-0.1-0.7c-0.2-1.5-0.7-2.5-1.4-2.9c-0.7-0.4-2.5-0.6-5.3-0.6
		c-2.9,0-4.7,0.2-5.6,0.7c-0.8,0.5-1.2,1.6-1.2,3.4c0,1.9,0.4,3.1,1.2,3.5c0.8,0.4,3.3,0.7,7.5,0.7c5.7,0,9.4,0.7,11.2,2
		c1.8,1.4,2.7,4,2.7,8.1c0,4.2-1.1,7.1-3.4,8.7c-2.3,1.6-6.4,2.4-12.4,2.4c-5.9,0-9.9-0.7-12-2.1c-2.1-1.4-3.2-4.2-3.2-8.2v-1h8.2
		v1.1c0,1.8,0.5,2.9,1.4,3.5c0.9,0.6,2.8,0.8,5.7,0.8c3,0,5-0.3,6-0.9c1-0.6,1.5-1.8,1.5-3.6c0-1.7-0.3-2.9-0.9-3.5
		c-0.6-0.6-1.9-0.9-3.9-0.9c-7.3,0-12.1-0.7-14.4-2c-2.3-1.3-3.4-4.1-3.4-8.2c0-4.2,1-7,3.1-8.4c2-1.4,6.1-2.1,12.2-2.1
		c5.6,0,9.4,0.7,11.3,2C727,118.4,728,121,728,124.9z"/>
	<path id="XMLID_131_" class="st0" d="M743.6,141.1v8.6c0,3.3-0.5,5.6-1.6,6.8c-1,1.2-2.9,1.8-5.7,1.8h-1.4v-3.8
		c1.5,0,2.5-0.3,3-0.7c0.5-0.5,0.8-1.4,0.8-2.7v-1h-3.2v-8.8H743.6z"/>
	<path id="XMLID_133_" class="st0" d="M801.9,126.2h7.8v1.8c0,3.4,0,5.6-0.1,6.6c-0.1,1-0.4,2.3-0.8,4.1l7,5.9l-4.4,5.4l-5.8-5
		c-1.3,2.1-2.9,3.4-4.9,4.2c-2,0.7-5.3,1.1-9.7,1.1c-8.6,0-14.3-1-17.1-2.9c-2.7-2-4.1-6-4.1-12.2c0-4.6,0.6-7.8,1.9-9.5
		c1.3-1.8,3.7-3,7.3-3.5c-1.6-1.5-2.7-2.8-3.2-3.9c-0.5-1.1-0.7-2.8-0.7-5c0-4.6,1.1-7.7,3.2-9.4c2.1-1.7,6.1-2.6,11.9-2.6
		c6.1,0,10.2,0.9,12.3,2.7c2.1,1.8,3.2,5.3,3.2,10.5v2h-8.2V115c0-2.8-0.4-4.7-1.2-5.5c-0.8-0.8-2.6-1.2-5.5-1.2
		c-2.9,0-4.9,0.3-5.8,1c-0.9,0.6-1.4,2-1.4,4.1c0,1.3,0.2,2.4,0.5,3.2c0.3,0.8,1,1.6,2,2.4l1.1,1l14.6,12.9l0-1.1v-2.3v-2.2V126.2z
		 M799.6,139.9l-15.9-13.5c-2.2,0.3-3.6,1-4.3,2.1c-0.7,1.1-1,3.1-1,6c0,3.7,0.6,6,1.8,7c1.2,1,4,1.5,8.4,1.5c3.9,0,6.3-0.1,7.4-0.4
		C797.1,142.3,798.3,141.4,799.6,139.9z"/>
	<path id="XMLID_136_" class="st0" d="M5.6,238.4v-49.2h19.5h2.7c6.2,0,10.5,1.1,12.8,3.4c2.3,2.3,3.5,6.5,3.5,12.7
		c0,7.1-1,11.8-3.1,14c-2,2.2-6.5,3.3-13.3,3.3h-2.1H14.9v15.9H5.6z M14.9,214.4h10.4c4.1,0,6.8-0.5,7.8-1.4c1.1-1,1.6-3.3,1.6-6.9
		c0-4.1-0.5-6.6-1.4-7.6c-0.9-1-3.3-1.5-7.2-1.5H14.9V214.4z"/>
	<path id="XMLID_139_" class="st0" d="M58.1,213.9h-8.3c0-4.2,1-7,2.9-8.3c1.9-1.4,5.7-2.1,11.5-2.1c5.9,0,9.9,0.9,12,2.6
		c2.1,1.7,3.2,5,3.2,9.8v22.5h-8.2l0.4-4.7c-1,2-2.2,3.3-3.8,4.1c-1.5,0.7-3.9,1.1-7,1.1c-4.5,0-7.7-0.8-9.6-2.4
		c-1.9-1.6-2.8-4.3-2.8-8.2c0-3.9,1-6.7,2.9-8.4c1.9-1.7,5.1-2.5,9.6-2.5c3.3,0,5.7,0.3,7.1,0.8c1.4,0.5,2.5,1.6,3.2,3.1l0.1-5.6
		c0-2.8-0.4-4.6-1.3-5.5c-0.9-0.9-2.7-1.3-5.5-1.3c-2.7,0-4.4,0.3-5.2,0.9C58.5,210.4,58.1,211.8,58.1,213.9z M63.9,223
		c-2.8,0-4.7,0.3-5.7,1c-1,0.6-1.4,1.9-1.4,3.8c0,2.1,0.5,3.6,1.4,4.2c0.9,0.7,2.9,1,5.8,1c2.8,0,4.8-0.4,5.8-1.1
		c1-0.7,1.6-2.1,1.6-4.1c0-1.9-0.5-3.2-1.6-3.8C68.8,223.3,66.8,223,63.9,223z"/>
	<path id="XMLID_142_" class="st0" d="M95.7,189.1v49.2h-8.2v-49.2H95.7z"/>
	<path id="XMLID_144_" class="st0" d="M103.7,203.9h8.2l-0.2,5.3c0.9-2,2.2-3.4,3.9-4.3c1.7-0.9,3.8-1.4,6.5-1.4
		c6.1,0,9.5,2.1,10.2,6.4c1.8-4.3,5.4-6.4,10.8-6.4c4.1,0,7.1,0.9,8.9,2.8c1.8,1.8,2.6,5,2.6,9.3v22.8h-8.2v-21
		c0-2.8-0.4-4.6-1.2-5.6c-0.8-1-2.3-1.5-4.6-1.5c-2.8,0-4.8,0.6-5.9,1.7c-1.1,1.1-1.6,3.2-1.6,6.3v20.1H125v-21.3
		c0-2.8-0.4-4.6-1.1-5.5s-2.2-1.3-4.6-1.3c-2.7,0-4.6,0.6-5.8,1.8c-1.2,1.2-1.7,3.3-1.7,6.3v20h-8.2V203.9z"/>
	<path id="XMLID_146_" class="st0" d="M217.1,203.6h-8.9v-1c0-2.6-0.6-4.3-1.7-5.1c-1.2-0.8-3.6-1.3-7.2-1.3c-4.4,0-7.3,0.4-8.6,1.2
		s-2,2.5-2,5.2c0,3.2,0.6,5.2,1.7,5.9s4.7,1.1,10.7,1.1c7.1,0,11.7,0.9,13.9,2.7c2.2,1.8,3.3,5.4,3.3,10.8c0,6.5-1.2,10.8-3.6,12.8
		c-2.4,2-7.6,2.9-15.5,2.9c-8.1,0-13.4-0.9-15.9-2.7c-2.5-1.8-3.8-5.6-3.8-11.5v-1.8h8.9v1c0,3.4,0.6,5.5,1.8,6.2
		c1.2,0.8,4.4,1.1,9.7,1.1c4,0,6.6-0.4,7.8-1.3c1.1-0.9,1.7-2.9,1.7-6.1c0-2.5-0.4-4.1-1.3-4.9c-0.9-0.8-2.7-1.3-5.5-1.3l-5.1-0.3
		c-7.5,0-12.3-0.9-14.5-2.7c-2.2-1.8-3.3-5.5-3.3-11.1c0-5.9,1.3-9.9,3.8-11.8c2.5-1.9,7.8-2.9,15.7-2.9c7.1,0,11.9,0.9,14.4,2.7
		c2.5,1.8,3.8,5.2,3.8,10.3V203.6z"/>
	<path id="XMLID_148_" class="st0" d="M224.4,203.9h8.2l-0.4,5.1c1.2-2.1,2.6-3.6,4.2-4.3c1.6-0.8,3.9-1.2,6.9-1.2
		c4.9,0,8.3,1.2,10.2,3.6c1.9,2.4,2.8,6.8,2.8,13.1c0,7.2-0.9,12.1-2.7,14.7c-1.8,2.6-5.2,3.9-10.2,3.9c-3.1,0-5.4-0.4-6.9-1.2
		c-1.5-0.8-2.7-2.2-3.6-4.3l-0.1,19.8h-8.3V203.9z M240.1,210c-3,0-5,0.7-6,2.1c-0.9,1.4-1.4,4.4-1.4,8.9c0,4.6,0.5,7.6,1.5,9
		c1,1.4,3.2,2.1,6.5,2.1c2.9,0,4.9-0.7,5.8-2.1c0.9-1.4,1.4-4.3,1.4-8.7c0-4.9-0.5-8-1.4-9.4C245.6,210.7,243.5,210,240.1,210z"/>
	<path id="XMLID_151_" class="st0" d="M263.2,203.9h8.2l-0.5,4.8c1.2-2,2.4-3.4,3.8-4.2c1.3-0.8,3.2-1.1,5.6-1.1
		c3.2,0,5.5,0.9,6.9,2.6c1.3,1.7,2,4.6,2,8.8v2.5h-7.7l0.1-1.8c0-2.2-0.3-3.6-0.9-4.3s-1.7-1.1-3.3-1.1c-2.2,0-3.7,0.6-4.6,1.8
		c-0.9,1.2-1.3,3.3-1.3,6.3v20.3h-8.2V203.9z"/>
	<path id="XMLID_153_" class="st0" d="M301.7,189.1v7.1h-8.2v-7.1H301.7z M301.7,203.9v34.4h-8.2v-34.4H301.7z"/>
	<path id="XMLID_156_" class="st0" d="M309.7,203.9h8.2l-0.3,5.8c1.7-4.2,5.2-6.3,10.6-6.3c4.4,0,7.5,0.8,9.2,2.5
		c1.8,1.7,2.6,4.7,2.6,8.9v23.4H332v-20.7v-1.3c0-2.4-0.4-4-1.3-4.8c-0.8-0.9-2.4-1.3-4.7-1.3c-2.7,0-4.8,0.6-6.1,1.8
		c-1.3,1.2-2,3.2-2,5.9v20.4h-8.3V203.9z"/>
	<path id="XMLID_158_" class="st0" d="M378.4,203.9V239c0,5.7-1.1,9.6-3.4,11.6c-2.2,2-6.5,3.1-12.7,3.1c-5.7,0-9.5-0.8-11.4-2.3
		c-1.9-1.5-2.9-4.7-2.9-9.5h7.9c0,2.3,0.4,3.8,1.2,4.4c0.8,0.6,2.6,1,5.5,1c2.8,0,4.8-0.5,5.9-1.4c1.1-0.9,1.6-2.6,1.6-5.1v-7.7
		c-0.8,1.9-2,3.3-3.7,4.2c-1.6,0.9-3.8,1.3-6.5,1.3c-4.9,0-8.3-1.2-10.3-3.7c-1.9-2.5-2.9-6.9-2.9-13.2c0-7,0.9-11.8,2.7-14.3
		c1.8-2.5,5.2-3.8,10.2-3.8c3,0,5.3,0.5,6.9,1.4c1.6,0.9,2.8,2.5,3.7,4.8l-0.2-5.7H378.4z M362.4,210.1c-3.1,0-5,0.6-5.9,1.9
		c-0.9,1.3-1.3,4.2-1.3,8.8c0,4.7,0.4,7.7,1.3,9.1c0.9,1.3,2.9,2,6.1,2c3.3,0,5.4-0.7,6.3-2.1c0.9-1.4,1.4-4.6,1.4-9.6
		c0-4.2-0.5-6.9-1.5-8.2C367.8,210.8,365.7,210.1,362.4,210.1z"/>
	<path id="XMLID_161_" class="st0" d="M414.5,213.4h-7.9l-0.1-0.7c-0.2-1.5-0.7-2.5-1.4-2.9c-0.7-0.4-2.5-0.6-5.3-0.6
		c-2.9,0-4.7,0.2-5.6,0.7c-0.8,0.5-1.2,1.6-1.2,3.4c0,1.9,0.4,3.1,1.2,3.5c0.8,0.4,3.3,0.7,7.5,0.7c5.7,0,9.4,0.7,11.2,2
		c1.8,1.4,2.7,4,2.7,8.1c0,4.2-1.1,7.1-3.4,8.7c-2.3,1.6-6.4,2.4-12.4,2.4c-5.9,0-9.9-0.7-12-2.1c-2.1-1.4-3.2-4.2-3.2-8.2v-1h8.2
		v1.1c0,1.8,0.4,2.9,1.4,3.5c0.9,0.6,2.8,0.8,5.7,0.8c3,0,5-0.3,6-0.9c1-0.6,1.5-1.8,1.5-3.6c0-1.7-0.3-2.9-0.9-3.5
		c-0.6-0.6-1.9-0.9-3.9-0.9c-7.3,0-12.1-0.7-14.4-2c-2.3-1.3-3.4-4.1-3.4-8.2c0-4.2,1-7,3.1-8.4c2-1.4,6.1-2.1,12.2-2.1
		c5.6,0,9.4,0.7,11.3,2C413.5,206.9,414.5,209.5,414.5,213.4z"/>
	<path id="XMLID_163_" class="st0" d="M430.1,229.5v8.6c0,3.3-0.5,5.6-1.6,6.8c-1,1.2-2.9,1.8-5.7,1.8h-1.4v-3.8
		c1.5,0,2.5-0.3,3-0.7c0.5-0.5,0.8-1.4,0.8-2.7v-1h-3.2v-8.8H430.1z"/>
	<path id="XMLID_165_" class="st0" d="M486.3,220.8h9.1v1.6c0,6.7-1.2,11.1-3.6,13.2c-2.4,2.1-7.5,3.1-15.4,3.1
		c-8.9,0-14.7-1.2-17.5-3.7c-2.7-2.5-4.1-7.9-4.1-16.3V210c0-8.8,1.4-14.5,4.3-17.2c2.9-2.7,9.1-4,18.7-4c7,0,11.6,1,13.8,3
		c2.2,2,3.3,6.2,3.3,12.7v1.1h-9.1l-0.1-1.3c0-3.2-0.6-5.2-1.7-6.1c-1.1-0.9-3.6-1.3-7.6-1.3c-5.8,0-9.3,0.7-10.5,2.1
		c-1.2,1.4-1.7,5.6-1.7,12.8c0,9.2,0.5,14.7,1.5,16.4c1,1.7,4.2,2.6,9.5,2.6c4.6,0,7.5-0.5,8.9-1.4c1.3-0.9,2-3,2-6.3V220.8z"/>
	<path id="XMLID_167_" class="st0" d="M509.6,213.9h-8.3c0-4.2,1-7,2.9-8.3c1.9-1.4,5.7-2.1,11.5-2.1c5.9,0,9.9,0.9,12,2.6
		c2.1,1.7,3.2,5,3.2,9.8v22.5h-8.2l0.4-4.7c-1,2-2.2,3.3-3.8,4.1c-1.5,0.7-3.9,1.1-7,1.1c-4.5,0-7.7-0.8-9.6-2.4
		c-1.9-1.6-2.8-4.3-2.8-8.2c0-3.9,1-6.7,2.9-8.4c1.9-1.7,5.1-2.5,9.6-2.5c3.3,0,5.7,0.3,7.1,0.8c1.4,0.5,2.5,1.6,3.2,3.1l0.1-5.6
		c0-2.8-0.4-4.6-1.3-5.5c-0.9-0.9-2.7-1.3-5.5-1.3c-2.7,0-4.4,0.3-5.2,0.9C510,210.4,509.6,211.8,509.6,213.9z M515.3,223
		c-2.8,0-4.7,0.3-5.7,1c-1,0.6-1.4,1.9-1.4,3.8c0,2.1,0.5,3.6,1.4,4.2c0.9,0.7,2.9,1,5.8,1c2.8,0,4.8-0.4,5.8-1.1
		c1-0.7,1.6-2.1,1.6-4.1c0-1.9-0.5-3.2-1.6-3.8C520.2,223.3,518.2,223,515.3,223z"/>
	<path id="XMLID_170_" class="st0" d="M547.2,189.1v49.2H539v-49.2H547.2z"/>
	<path id="XMLID_172_" class="st0" d="M563.3,189.1v7.1h-8.2v-7.1H563.3z M563.3,203.9v34.4h-8.2v-34.4H563.3z"/>
	<path id="XMLID_175_" class="st0" d="M572.9,238.4v-28.2h-4.8v-6.3h4.8v-3.7c0-4.4,0.9-7.4,2.7-9.1c1.8-1.7,5.2-2.5,10.1-2.5h3.4
		v6.4c-1.1-0.2-2.1-0.3-3-0.3c-2,0-3.3,0.4-4,1.1c-0.7,0.7-1.1,2.2-1.1,4.3v3.7h8.3v6.3h-8.3v28.2H572.9z"/>
	<path id="XMLID_177_" class="st0" d="M608.2,203.5c6.7,0,11.2,1,13.2,3.1c2.1,2.1,3.1,6.5,3.1,13.4c0,7.8-1,12.9-3,15.3
		c-2,2.4-6.2,3.5-12.7,3.5c-6.8,0-11.2-1.1-13.2-3.4c-2-2.2-3-7.1-3-14.7c0-7.1,1-11.7,3-13.9C597.6,204.6,601.8,203.5,608.2,203.5z
		 M608.6,210c-3.3,0-5.4,0.6-6.3,1.9c-0.9,1.3-1.3,4.2-1.3,8.9c0,5.2,0.4,8.4,1.3,9.7c0.8,1.3,3,1.9,6.4,1.9c3.3,0,5.4-0.7,6.3-2
		c0.9-1.4,1.3-4.7,1.3-10c0-4.5-0.4-7.3-1.3-8.5C614,210.6,611.9,210,608.6,210z"/>
	<path id="XMLID_180_" class="st0" d="M631.5,203.9h8.2l-0.5,4.8c1.2-2,2.4-3.4,3.8-4.2c1.3-0.8,3.2-1.1,5.6-1.1
		c3.2,0,5.5,0.9,6.9,2.6c1.3,1.7,2,4.6,2,8.8v2.5h-7.7l0.1-1.8c0-2.2-0.3-3.6-0.9-4.3c-0.6-0.7-1.7-1.1-3.3-1.1
		c-2.2,0-3.7,0.6-4.6,1.8c-0.9,1.2-1.3,3.3-1.3,6.3v20.3h-8.2V203.9z"/>
	<path id="XMLID_182_" class="st0" d="M661.8,203.9h8.2l-0.3,5.8c1.7-4.2,5.2-6.3,10.6-6.3c4.4,0,7.5,0.8,9.2,2.5s2.6,4.7,2.6,8.9
		v23.4h-8.2v-20.7v-1.3c0-2.4-0.4-4-1.3-4.8c-0.8-0.9-2.4-1.3-4.7-1.3c-2.7,0-4.8,0.6-6.1,1.8c-1.3,1.2-2,3.2-2,5.9v20.4h-8.3V203.9
		z"/>
	<path id="XMLID_184_" class="st0" d="M708.4,189.1v7.1h-8.2v-7.1H708.4z M708.4,203.9v34.4h-8.2v-34.4H708.4z"/>
	<path id="XMLID_187_" class="st0" d="M724.8,213.9h-8.3c0-4.2,1-7,2.9-8.3c1.9-1.4,5.7-2.1,11.5-2.1c5.9,0,9.9,0.9,12,2.6
		c2.1,1.7,3.2,5,3.2,9.8v22.5H738l0.4-4.7c-1,2-2.2,3.3-3.8,4.1c-1.5,0.7-3.9,1.1-7,1.1c-4.5,0-7.7-0.8-9.6-2.4
		c-1.9-1.6-2.8-4.3-2.8-8.2c0-3.9,1-6.7,2.9-8.4c1.9-1.7,5.1-2.5,9.6-2.5c3.3,0,5.7,0.3,7.1,0.8c1.4,0.5,2.5,1.6,3.2,3.1l0.1-5.6
		c0-2.8-0.4-4.6-1.3-5.5c-0.9-0.9-2.7-1.3-5.5-1.3c-2.7,0-4.4,0.3-5.2,0.9C725.2,210.4,724.8,211.8,724.8,213.9z M730.6,223
		c-2.8,0-4.7,0.3-5.7,1c-1,0.6-1.4,1.9-1.4,3.8c0,2.1,0.5,3.6,1.4,4.2c0.9,0.7,2.9,1,5.8,1c2.8,0,4.8-0.4,5.8-1.1
		c1-0.7,1.6-2.1,1.6-4.1c0-1.9-0.5-3.2-1.6-3.8C735.5,223.3,733.5,223,730.6,223z"/>
	<path id="XMLID_190_" class="st0" d="M780.8,213.9h-8.3c0-4.2,1-7,2.9-8.3c1.9-1.4,5.7-2.1,11.5-2.1c5.9,0,9.9,0.9,12,2.6
		c2.1,1.7,3.2,5,3.2,9.8v22.5H794l0.4-4.7c-1,2-2.2,3.3-3.8,4.1c-1.5,0.7-3.9,1.1-7,1.1c-4.5,0-7.7-0.8-9.6-2.4
		c-1.9-1.6-2.8-4.3-2.8-8.2c0-3.9,1-6.7,2.9-8.4c1.9-1.7,5.1-2.5,9.6-2.5c3.3,0,5.7,0.3,7.1,0.8c1.4,0.5,2.5,1.6,3.2,3.1l0.1-5.6
		c0-2.8-0.4-4.6-1.3-5.5c-0.9-0.9-2.7-1.3-5.5-1.3c-2.7,0-4.4,0.3-5.2,0.9C781.2,210.4,780.8,211.8,780.8,213.9z M786.6,223
		c-2.8,0-4.7,0.3-5.7,1c-1,0.6-1.4,1.9-1.4,3.8c0,2.1,0.5,3.6,1.4,4.2c0.9,0.7,2.9,1,5.8,1c2.8,0,4.8-0.4,5.8-1.1
		c1-0.7,1.6-2.1,1.6-4.1c0-1.9-0.5-3.2-1.6-3.8C791.4,223.3,789.5,223,786.6,223z"/>
	<path id="XMLID_193_" class="st0" d="M810.4,203.9h8.2l-0.5,4.8c1.2-2,2.4-3.4,3.8-4.2c1.3-0.8,3.2-1.1,5.6-1.1
		c3.2,0,5.5,0.9,6.9,2.6c1.3,1.7,2,4.6,2,8.8v2.5h-7.7l0.1-1.8c0-2.2-0.3-3.6-0.9-4.3c-0.6-0.7-1.7-1.1-3.3-1.1
		c-2.2,0-3.7,0.6-4.6,1.8c-0.9,1.2-1.3,3.3-1.3,6.3v20.3h-8.2V203.9z"/>
	<path id="XMLID_195_" class="st0" d="M862.6,227.4h8.1v0.7v0.4c0,3.8-1.1,6.5-3.3,8.1c-2.2,1.5-6,2.3-11.4,2.3
		c-6.7,0-11.1-1.1-13.2-3.4c-2.1-2.3-3.2-7-3.2-14.2c0-7,1-11.7,3.1-14.1c2.1-2.4,6.2-3.6,12.3-3.6c6.4,0,10.6,1.1,12.6,3.2
		s3.1,6.5,3.1,13.1v2.8h-22.8v1.3c0,3.6,0.5,5.9,1.5,7c1,1.1,3,1.7,6.2,1.7c3,0,4.9-0.3,5.8-1C862.1,231,862.6,229.6,862.6,227.4z
		 M847.9,217.4h14.7v-1.3c0-2.7-0.5-4.5-1.4-5.3c-0.9-0.8-2.9-1.2-6-1.2c-3.1,0-5,0.5-5.9,1.4S847.9,214.1,847.9,217.4z"/>
	<path id="XMLID_198_" class="st0" d="M885.9,213.9h-8.3c0-4.2,1-7,2.9-8.3c1.9-1.4,5.7-2.1,11.5-2.1c5.9,0,9.9,0.9,12,2.6
		c2.1,1.7,3.2,5,3.2,9.8v22.5h-8.2l0.4-4.7c-1,2-2.2,3.3-3.8,4.1c-1.5,0.7-3.9,1.1-7,1.1c-4.5,0-7.7-0.8-9.6-2.4
		c-1.9-1.6-2.8-4.3-2.8-8.2c0-3.9,1-6.7,2.9-8.4c1.9-1.7,5.1-2.5,9.6-2.5c3.3,0,5.7,0.3,7.1,0.8c1.4,0.5,2.5,1.6,3.2,3.1l0.1-5.6
		c0-2.8-0.4-4.6-1.3-5.5c-0.9-0.9-2.7-1.3-5.5-1.3c-2.7,0-4.4,0.3-5.2,0.9C886.3,210.4,885.9,211.8,885.9,213.9z M891.7,223
		c-2.8,0-4.7,0.3-5.7,1c-1,0.6-1.4,1.9-1.4,3.8c0,2.1,0.5,3.6,1.4,4.2c0.9,0.7,2.9,1,5.8,1c2.8,0,4.8-0.4,5.8-1.1
		c1-0.7,1.6-2.1,1.6-4.1c0-1.9-0.5-3.2-1.6-3.8C896.6,223.3,894.6,223,891.7,223z"/>
	<path id="XMLID_201_" class="st0" d="M923,229.4v9h-8v-9H923z"/>
</g>
</svg>
